<svg width="132" height="25" viewBox="0 0 132 25" fill="none" xmlns="http://www.w3.org/2000/svg">
<path d="M125.893 0.5H83.3692C80.279 0.5 77.7739 3.00507 77.7739 6.09524V18.4048C77.7739 21.4949 80.279 24 83.3692 24H125.893C128.983 24 131.488 21.4949 131.488 18.4048V6.09524C131.488 3.00507 128.983 0.5 125.893 0.5Z" fill="#212121" stroke="#212121"/>
<path d="M92.2097 16.8269C94.1232 16.8269 95.1863 15.5736 95.1863 14.2979C95.1863 13.6152 94.9625 13.1229 94.5597 12.7312C94.0785 12.25 93.3287 11.9255 92.3104 11.6233C91.3368 11.3324 90.6878 10.9855 90.6878 10.2805C90.6878 9.58667 91.3032 9.08309 92.1537 9.08309C93.0378 9.08309 93.6085 9.5419 93.9218 10.314L95.0632 9.69857C94.6828 8.71381 93.7651 7.84095 92.1873 7.84095C90.5535 7.84095 89.2778 8.96 89.2778 10.3588C89.2778 11.0526 89.5016 11.5674 89.9492 11.959C90.3968 12.3619 91.0794 12.6864 92.0082 12.9774C93.228 13.3579 93.7651 13.716 93.7651 14.3762C93.7651 15.1148 93.1049 15.5736 92.2321 15.5736C91.2809 15.5736 90.5311 15.07 90.1506 14.1188L88.9868 14.7231C89.4792 16.066 90.6766 16.8269 92.2097 16.8269ZM99.0918 16.7933C99.2597 16.7933 99.573 16.7598 99.808 16.6702V15.54C99.6402 15.5736 99.5059 15.5848 99.3828 15.5848C98.7225 15.5848 98.3532 15.3274 98.3532 14.5888V11.9479H99.8192V10.7505H98.3532V8.90405H97.0216V10.7505H95.9249V11.9479H97.0216V14.8014C97.0216 16.1219 97.8049 16.7933 99.0918 16.7933ZM103.859 16.8269C105.616 16.8269 107.003 15.4729 107.003 13.7048C107.003 11.9479 105.582 10.6274 103.87 10.6274C102.136 10.6274 100.703 11.959 100.703 13.7271C100.703 15.4952 102.136 16.8269 103.859 16.8269ZM103.87 15.6183C102.785 15.6183 102.068 14.7231 102.068 13.7048C102.068 12.6752 102.785 11.836 103.859 11.836C104.944 11.836 105.649 12.6976 105.649 13.7271C105.649 14.7567 104.956 15.6183 103.87 15.6183ZM111.099 16.8269C112.688 16.8269 113.539 15.8421 113.83 15.0252L112.666 14.5105C112.453 15.0588 112.062 15.6183 111.122 15.6183C110.103 15.6183 109.353 14.8238 109.353 13.7048C109.353 12.5969 110.137 11.836 111.11 11.836C112.084 11.836 112.453 12.4067 112.643 12.9326L113.785 12.4179C113.449 11.4107 112.487 10.6274 111.099 10.6274C109.32 10.6274 107.988 12.0598 107.988 13.7271C107.988 15.484 109.342 16.8269 111.099 16.8269ZM116.448 16.7262V13.8055H116.482L118.977 16.7262H120.734L117.892 13.4586L120.589 10.7505H118.776L116.459 13.1005H116.448V7.61714H115.117V16.7262H116.448Z" fill="#EFEFEF"/>
<path d="M10.6379 14.9277H4.07557V20.9049H0V4.69069H11.3287V8.40073H4.07557V11.3321H10.6379V14.9277Z" fill="#212121"/>
<path d="M22.3811 4.41667C27.0553 4.41667 30.8545 8.01221 30.8545 12.7299C30.8545 17.4476 27.0323 21.1577 22.335 21.1577C17.6378 21.1577 13.8154 17.5164 13.8154 12.7986C13.8154 8.08092 17.6607 4.41667 22.3811 4.41667ZM22.335 17.3332C24.8448 17.3332 26.6639 15.1804 26.6639 12.7757C26.6639 10.3711 24.7988 8.24123 22.335 8.24123C19.8482 8.24123 18.0061 10.3711 18.0061 12.7757C18.0061 15.1804 19.8482 17.3332 22.335 17.3332Z" fill="#212121"/>
<path d="M42.2294 4.41667C45.6602 4.41667 48.4694 6.11138 49.5747 9.11148L45.9596 10.8291C45.3378 9.3176 44.1406 8.24123 42.1603 8.24123C39.7886 8.24123 37.9005 10.2795 37.9005 12.7528C37.9005 15.1804 39.6044 17.2645 42.1603 17.2645C44.0485 17.2645 45.3378 16.1651 45.9826 14.6307L49.6437 16.3712C48.4694 19.3714 45.5912 21.1348 42.1142 21.1348C37.417 21.1348 33.6868 17.6079 33.6868 12.7757C33.7098 8.19543 37.3939 4.41667 42.2294 4.41667Z" fill="#212121"/>
<path d="M50.749 20.9049L57.012 4.69069H61.6403L67.9263 20.9049H63.5514L62.4231 17.9278H56.137L55.0549 20.9049H50.749ZM57.3574 14.4696H61.2719L59.2916 9.2939L57.3574 14.4696Z" fill="#212121"/>
</svg>
